# xmcd CD database file
#
# Track frame offsets:
#	150
#	48607
#	87991
#	116923
#	142858
#	167233
#	190668
#	215125
#	235515
#
# Disc length: 3422 seconds
#
# Revision: 0
# Processed by: cddbd v1.5.2PL0 Copyright (c) Steve Scherf et al.
# Submitted via: CDex 1.51
#
DISCID=7d0d5c09
DTITLE=Jenny Scheinman and Bill Frisell - Live In Concert Newport Jazz 2012
DYEAR=2012
DGENRE=Jazz
TTITLE0=Jenny Scheinman and Bill Frisell - Einsamaller - Sidiki - Jara Bi
TTITLE1=Jenny Scheinman and Bill Frisell - Django's Castle
TTITLE2=Jenny Scheinman and Bill Frisell - Rag
TTITLE3=Jenny Scheinman and Bill Frisell - Thirteen Days
TTITLE4=Jenny Scheinman and Bill Frisell - July 10th in 3/4
TTITLE5=Jenny Scheinman and Bill Frisell - 413
TTITLE6=Jenny Scheinman and Bill Frisell - Little Calypso
TTITLE7=Jenny Scheinman and Bill Frisell - Sleeping in the Aquifer
TTITLE8=Jenny Scheinman and Bill Frisell - That's Delight
EXTD=YEAR: 2012
EXTT0=
EXTT1=
EXTT2=
EXTT3=
EXTT4=
EXTT5=
EXTT6=
EXTT7=
EXTT8=
PLAYORDER=
